<svg width="201" height="87" viewBox="0 0 201 87" fill="none" xmlns="http://www.w3.org/2000/svg">
<path d="M9.65619 0.175537C-3.09297 0.175457 -3.34387 17.1755 9.65618 17.1755H24.6562V54.9999C24.6562 67.9999 43.6562 67.9999 43.6562 54.9999L43.6562 17.1755H60.1562C72.1562 17.1755 71.6562 0.175537 60.1562 0.175537H9.65619Z" fill="#A651B0"/>
<path d="M144.342 64.5C137.842 61 138.842 51.5 142.842 47.1757L119.608 47.1757L119.608 9C119.608 -2.56777 102.002 -2.56777 102.002 9L102.002 47.1757C102.002 55.2228 101.469 64.4999 118.342 64.5L144.342 64.5Z" fill="#FFA000"/>
<path d="M152.249 17.9907C136.988 17.9907 137.515 0.5 152.249 0.500013L190.663 0.500055C201.714 0.500154 201.714 11.6486 196.452 17.9907C186.648 29.8062 171.193 48.116 171.193 48.116H192.768C203.819 48.116 204.345 64.5 190.663 64.5H152.249C140.672 64.5 138.896 53.5003 147.316 45.044C157.369 34.9468 171.193 17.9907 171.193 17.9907H152.249Z" fill="#06BB9C"/>
<path d="M65.5 17.9999C63.5 20.4999 51 19.4999 47 19.4999C47 32.4999 47.0002 28.4999 47 40.9999C46.9998 53.4999 55 64.4999 74 64.4999C93 64.4999 99.3134 53.4999 99.3134 40.9999V8.99989C99.3134 -2.99993 82.4385 -3 82.4385 8.9999V30.1028C82.4385 39.1622 81.1562 47.4999 74 47.4999C66.8438 47.4999 65.5 39.4999 65.5 30.1028V17.9999Z" fill="#0064B4"/>
<path d="M23.448 81.5L27.656 69.82H30.312L34.648 81.5H33.032L29.112 70.844L29.88 71.228H27.992L28.808 70.844L25.016 81.5H23.448ZM25.96 78.012L26.488 76.604H31.528L32.056 78.012H25.96ZM36.8218 81.5V69.82H38.3898V81.5H36.8218ZM46.7096 77.436V76.06H49.3176C49.8723 76.06 50.331 75.9533 50.6936 75.74C51.0563 75.516 51.3283 75.2173 51.5096 74.844C51.7016 74.4707 51.7976 74.0547 51.7976 73.596C51.7976 73.1267 51.7016 72.7053 51.5096 72.332C51.3283 71.9587 51.0563 71.6653 50.6936 71.452C50.331 71.2387 49.8723 71.132 49.3176 71.132H46.7096V69.756H49.0296C49.9896 69.756 50.7896 69.9107 51.4296 70.22C52.0803 70.5187 52.571 70.9453 52.9016 71.5C53.2323 72.0547 53.3976 72.7107 53.3976 73.468V73.724C53.3976 74.4707 53.2323 75.1267 52.9016 75.692C52.571 76.2467 52.0803 76.6787 51.4296 76.988C50.7896 77.2867 49.9896 77.436 49.0296 77.436H46.7096ZM45.4616 81.5V69.756H47.0296V81.5H45.4616ZM59.2518 81.788C58.5051 81.788 57.8491 81.66 57.2838 81.404C56.7184 81.148 56.2384 80.812 55.8438 80.396C55.4598 79.9693 55.1664 79.4947 54.9638 78.972C54.7718 78.4493 54.6758 77.916 54.6758 77.372V77.084C54.6758 76.54 54.7771 76.0067 54.9798 75.484C55.1824 74.9507 55.4811 74.476 55.8758 74.06C56.2704 73.6333 56.7504 73.2973 57.3158 73.052C57.8811 72.796 58.5264 72.668 59.2518 72.668C59.9771 72.668 60.6224 72.796 61.1878 73.052C61.7531 73.2973 62.2331 73.6333 62.6278 74.06C63.0224 74.476 63.3211 74.9507 63.5238 75.484C63.7264 76.0067 63.8278 76.54 63.8278 77.084V77.372C63.8278 77.916 63.7264 78.4493 63.5238 78.972C63.3318 79.4947 63.0384 79.9693 62.6438 80.396C62.2598 80.812 61.7851 81.148 61.2198 81.404C60.6544 81.66 59.9984 81.788 59.2518 81.788ZM59.2518 80.412C59.8918 80.412 60.4358 80.2733 60.8838 79.996C61.3424 79.708 61.6891 79.324 61.9237 78.844C62.1691 78.364 62.2917 77.8253 62.2917 77.228C62.2917 76.62 62.1691 76.076 61.9237 75.596C61.6784 75.116 61.3264 74.7373 60.8678 74.46C60.4198 74.1827 59.8811 74.044 59.2518 74.044C58.6331 74.044 58.0944 74.1827 57.6358 74.46C57.1771 74.7373 56.8251 75.116 56.5798 75.596C56.3344 76.076 56.2118 76.62 56.2118 77.228C56.2118 77.8253 56.3291 78.364 56.5638 78.844C56.8091 79.324 57.1558 79.708 57.6038 79.996C58.0624 80.2733 58.6118 80.412 59.2518 80.412ZM68.468 81.5L70.196 73.244H72.276L74.292 81.5H72.98L70.964 73.276H71.476L69.732 81.5H68.468ZM67.684 81.5V80.284H69.46V81.5H67.684ZM67.332 81.5L64.916 72.956H66.388L68.74 81.5H67.332ZM73.3 81.5V80.284H75.076V81.5H73.3ZM74.02 81.5L76.068 72.956H77.46L75.364 81.5H74.02ZM83.0103 81.788C82.2636 81.788 81.6183 81.66 81.0743 81.404C80.5303 81.148 80.0876 80.812 79.7463 80.396C79.4049 79.9693 79.1489 79.4947 78.9783 78.972C78.8183 78.4493 78.7383 77.916 78.7383 77.372V77.084C78.7383 76.5293 78.8183 75.9907 78.9783 75.468C79.1489 74.9453 79.4049 74.476 79.7463 74.06C80.0876 73.6333 80.5196 73.2973 81.0423 73.052C81.5756 72.796 82.1996 72.668 82.9143 72.668C83.8423 72.668 84.6049 72.8707 85.2023 73.276C85.8103 73.6707 86.2583 74.1827 86.5463 74.812C86.8449 75.4413 86.9943 76.1133 86.9943 76.828V77.516H79.4103V76.364H85.8743L85.5223 76.988C85.5223 76.38 85.4263 75.8573 85.2343 75.42C85.0423 74.972 84.7543 74.6253 84.3703 74.38C83.9863 74.1347 83.5009 74.012 82.9143 74.012C82.3063 74.012 81.7996 74.1507 81.3943 74.428C80.9996 74.7053 80.7009 75.084 80.4983 75.564C80.3063 76.044 80.2103 76.5987 80.2103 77.228C80.2103 77.836 80.3063 78.3853 80.4983 78.876C80.7009 79.356 81.0103 79.74 81.4263 80.028C81.8423 80.3053 82.3703 80.444 83.0103 80.444C83.6823 80.444 84.2263 80.2947 84.6423 79.996C85.0689 79.6973 85.3249 79.3507 85.4103 78.956H86.8503C86.7329 79.5427 86.4983 80.0493 86.1463 80.476C85.7943 80.9027 85.3516 81.228 84.8183 81.452C84.2849 81.676 83.6823 81.788 83.0103 81.788ZM89.1751 81.5V72.956H90.3911V76.476H90.3271C90.3271 75.228 90.5991 74.316 91.1431 73.74C91.6978 73.1533 92.5245 72.86 93.6231 72.86H93.9111V74.236H93.3671C92.5138 74.236 91.8578 74.4653 91.3991 74.924C90.9405 75.372 90.7111 76.0227 90.7111 76.876V81.5H89.1751ZM99.2759 81.788C98.5292 81.788 97.8839 81.66 97.3399 81.404C96.7959 81.148 96.3532 80.812 96.0119 80.396C95.6705 79.9693 95.4145 79.4947 95.2439 78.972C95.0839 78.4493 95.0039 77.916 95.0039 77.372V77.084C95.0039 76.5293 95.0839 75.9907 95.2439 75.468C95.4145 74.9453 95.6705 74.476 96.0119 74.06C96.3532 73.6333 96.7852 73.2973 97.3079 73.052C97.8412 72.796 98.4652 72.668 99.1799 72.668C100.108 72.668 100.871 72.8707 101.468 73.276C102.076 73.6707 102.524 74.1827 102.812 74.812C103.111 75.4413 103.26 76.1133 103.26 76.828V77.516H95.6759V76.364H102.14L101.788 76.988C101.788 76.38 101.692 75.8573 101.5 75.42C101.308 74.972 101.02 74.6253 100.636 74.38C100.252 74.1347 99.7665 74.012 99.1799 74.012C98.5719 74.012 98.0652 74.1507 97.6599 74.428C97.2652 74.7053 96.9665 75.084 96.7639 75.564C96.5719 76.044 96.4759 76.5987 96.4759 77.228C96.4759 77.836 96.5719 78.3853 96.7639 78.876C96.9665 79.356 97.2759 79.74 97.6919 80.028C98.1079 80.3053 98.6359 80.444 99.2759 80.444C99.9479 80.444 100.492 80.2947 100.908 79.996C101.335 79.6973 101.591 79.3507 101.676 78.956H103.116C102.999 79.5427 102.764 80.0493 102.412 80.476C102.06 80.9027 101.617 81.228 101.084 81.452C100.551 81.676 99.9479 81.788 99.2759 81.788ZM109.009 81.788C108.401 81.788 107.841 81.676 107.329 81.452C106.817 81.228 106.369 80.9133 105.985 80.508C105.611 80.1027 105.318 79.6333 105.105 79.1C104.902 78.5667 104.801 77.9907 104.801 77.372V77.084C104.801 76.476 104.902 75.9053 105.105 75.372C105.307 74.8387 105.59 74.3693 105.953 73.964C106.326 73.5587 106.763 73.244 107.265 73.02C107.777 72.7853 108.342 72.668 108.961 72.668C109.611 72.668 110.203 72.8067 110.737 73.084C111.27 73.3507 111.707 73.772 112.049 74.348C112.39 74.924 112.582 75.6707 112.625 76.588L111.985 75.564V69.82H113.521V81.5H112.305V77.708H112.753C112.71 78.6787 112.507 79.468 112.145 80.076C111.782 80.6733 111.323 81.1107 110.769 81.388C110.225 81.6547 109.638 81.788 109.009 81.788ZM109.217 80.444C109.739 80.444 110.214 80.3267 110.641 80.092C111.067 79.8573 111.409 79.5213 111.665 79.084C111.921 78.636 112.049 78.1133 112.049 77.516V76.78C112.049 76.1933 111.915 75.6973 111.649 75.292C111.393 74.876 111.046 74.5613 110.609 74.348C110.182 74.124 109.713 74.012 109.201 74.012C108.635 74.012 108.134 74.1453 107.697 74.412C107.27 74.6787 106.934 75.052 106.689 75.532C106.454 76.012 106.337 76.5773 106.337 77.228C106.337 77.8787 106.459 78.4493 106.705 78.94C106.95 79.42 107.291 79.7933 107.729 80.06C108.166 80.316 108.662 80.444 109.217 80.444ZM120.337 81.5V69.82H121.905V81.5H120.337ZM121.585 81.5V80.092H127.249V81.5H121.585ZM121.585 76.268V74.86H126.753V76.268H121.585ZM121.585 71.228V69.82H127.089V71.228H121.585ZM133.087 81.788C132.479 81.788 131.919 81.676 131.407 81.452C130.895 81.228 130.447 80.9133 130.063 80.508C129.69 80.1027 129.396 79.6333 129.183 79.1C128.98 78.5667 128.879 77.9907 128.879 77.372V77.084C128.879 76.476 128.98 75.9053 129.183 75.372C129.386 74.8387 129.668 74.3693 130.031 73.964C130.404 73.5587 130.842 73.244 131.343 73.02C131.855 72.7853 132.42 72.668 133.039 72.668C133.69 72.668 134.282 72.8067 134.815 73.084C135.348 73.3507 135.786 73.772 136.127 74.348C136.468 74.924 136.66 75.6707 136.703 76.588L136.063 75.564V69.82H137.599V81.5H136.383V77.708H136.831C136.788 78.6787 136.586 79.468 136.223 80.076C135.86 80.6733 135.402 81.1107 134.847 81.388C134.303 81.6547 133.716 81.788 133.087 81.788ZM133.295 80.444C133.818 80.444 134.292 80.3267 134.719 80.092C135.146 79.8573 135.487 79.5213 135.743 79.084C135.999 78.636 136.127 78.1133 136.127 77.516V76.78C136.127 76.1933 135.994 75.6973 135.727 75.292C135.471 74.876 135.124 74.5613 134.687 74.348C134.26 74.124 133.791 74.012 133.279 74.012C132.714 74.012 132.212 74.1453 131.775 74.412C131.348 74.6787 131.012 75.052 130.767 75.532C130.532 76.012 130.415 76.5773 130.415 77.228C130.415 77.8787 130.538 78.4493 130.783 78.94C131.028 79.42 131.37 79.7933 131.807 80.06C132.244 80.316 132.74 80.444 133.295 80.444ZM143.51 81.756C142.497 81.756 141.718 81.4253 141.174 80.764C140.63 80.1027 140.358 79.148 140.358 77.9V72.94H141.894V78.204C141.894 78.876 142.075 79.404 142.438 79.788C142.801 80.1613 143.291 80.348 143.91 80.348C144.55 80.348 145.073 80.1453 145.478 79.74C145.883 79.324 146.086 78.7587 146.086 78.044V72.94H147.622V81.5H146.406V77.836H146.598C146.598 78.6787 146.486 79.3933 146.262 79.98C146.038 80.556 145.702 80.9987 145.254 81.308C144.817 81.6067 144.257 81.756 143.574 81.756H143.51ZM154.261 81.788C153.525 81.788 152.885 81.66 152.341 81.404C151.808 81.148 151.365 80.8067 151.013 80.38C150.661 79.9427 150.394 79.4627 150.213 78.94C150.042 78.4173 149.957 77.8947 149.957 77.372V77.084C149.957 76.54 150.042 76.0067 150.213 75.484C150.394 74.9613 150.661 74.492 151.013 74.076C151.376 73.6493 151.824 73.308 152.357 73.052C152.89 72.796 153.514 72.668 154.229 72.668C154.944 72.668 155.584 72.8013 156.149 73.068C156.725 73.3347 157.184 73.7133 157.525 74.204C157.877 74.684 158.074 75.2547 158.117 75.916H156.645C156.57 75.3827 156.325 74.94 155.909 74.588C155.493 74.2253 154.933 74.044 154.229 74.044C153.621 74.044 153.114 74.1827 152.709 74.46C152.304 74.7373 152 75.116 151.797 75.596C151.594 76.076 151.493 76.62 151.493 77.228C151.493 77.8147 151.594 78.3533 151.797 78.844C152 79.324 152.304 79.708 152.709 79.996C153.125 80.2733 153.642 80.412 154.261 80.412C154.741 80.412 155.157 80.3267 155.509 80.156C155.861 79.9853 156.144 79.756 156.357 79.468C156.57 79.18 156.698 78.8547 156.741 78.492H158.213C158.181 79.164 157.984 79.7453 157.621 80.236C157.269 80.7267 156.8 81.1107 156.213 81.388C155.637 81.6547 154.986 81.788 154.261 81.788ZM165.468 81.5V78.94H165.212V75.98C165.212 75.3933 165.057 74.9507 164.748 74.652C164.449 74.3533 164.007 74.204 163.42 74.204C163.089 74.204 162.748 74.2093 162.396 74.22C162.044 74.2307 161.708 74.2413 161.388 74.252C161.068 74.2627 160.791 74.2787 160.556 74.3V72.956C160.791 72.9347 161.036 72.9187 161.292 72.908C161.559 72.8867 161.831 72.876 162.108 72.876C162.385 72.8653 162.652 72.86 162.908 72.86C163.783 72.86 164.497 72.9667 165.052 73.18C165.607 73.3827 166.017 73.7187 166.284 74.188C166.551 74.6573 166.684 75.292 166.684 76.092V81.5H165.468ZM162.668 81.724C162.028 81.724 161.473 81.6173 161.004 81.404C160.545 81.18 160.188 80.86 159.932 80.444C159.687 80.028 159.564 79.5267 159.564 78.94C159.564 78.332 159.697 77.8253 159.964 77.42C160.241 77.0147 160.641 76.7107 161.164 76.508C161.687 76.2947 162.316 76.188 163.052 76.188H165.372V77.34H162.988C162.369 77.34 161.895 77.4893 161.564 77.788C161.233 78.0867 161.068 78.4707 161.068 78.94C161.068 79.4093 161.233 79.788 161.564 80.076C161.895 80.364 162.369 80.508 162.988 80.508C163.351 80.508 163.697 80.444 164.028 80.316C164.359 80.1773 164.631 79.9533 164.844 79.644C165.068 79.324 165.191 78.8867 165.212 78.332L165.628 78.94C165.575 79.548 165.425 80.06 165.18 80.476C164.945 80.8813 164.615 81.1907 164.188 81.404C163.772 81.6173 163.265 81.724 162.668 81.724ZM172.831 81.596C172.191 81.596 171.637 81.5053 171.167 81.324C170.709 81.1427 170.351 80.8333 170.095 80.396C169.85 79.948 169.727 79.3453 169.727 78.588V70.364H171.199V78.78C171.199 79.2387 171.322 79.596 171.567 79.852C171.823 80.0973 172.181 80.22 172.639 80.22H174.143V81.596H172.831ZM168.255 74.108V72.956H174.143V74.108H168.255ZM176.732 81.5V72.956H178.268V81.5H176.732ZM175.42 74.172V72.956H178.268V74.172H175.42ZM177.164 71.58C176.822 71.58 176.566 71.4893 176.396 71.308C176.236 71.1267 176.156 70.8973 176.156 70.62C176.156 70.3427 176.236 70.1133 176.396 69.932C176.566 69.7507 176.822 69.66 177.164 69.66C177.505 69.66 177.756 69.7507 177.916 69.932C178.086 70.1133 178.172 70.3427 178.172 70.62C178.172 70.8973 178.086 71.1267 177.916 71.308C177.756 71.4893 177.505 71.58 177.164 71.58ZM185.174 81.788C184.427 81.788 183.771 81.66 183.206 81.404C182.64 81.148 182.16 80.812 181.766 80.396C181.382 79.9693 181.088 79.4947 180.886 78.972C180.694 78.4493 180.598 77.916 180.598 77.372V77.084C180.598 76.54 180.699 76.0067 180.902 75.484C181.104 74.9507 181.403 74.476 181.798 74.06C182.192 73.6333 182.672 73.2973 183.238 73.052C183.803 72.796 184.448 72.668 185.174 72.668C185.899 72.668 186.544 72.796 187.11 73.052C187.675 73.2973 188.155 73.6333 188.55 74.06C188.944 74.476 189.243 74.9507 189.446 75.484C189.648 76.0067 189.75 76.54 189.75 77.084V77.372C189.75 77.916 189.648 78.4493 189.446 78.972C189.254 79.4947 188.96 79.9693 188.566 80.396C188.182 80.812 187.707 81.148 187.142 81.404C186.576 81.66 185.92 81.788 185.174 81.788ZM185.174 80.412C185.814 80.412 186.358 80.2733 186.806 79.996C187.264 79.708 187.611 79.324 187.846 78.844C188.091 78.364 188.214 77.8253 188.214 77.228C188.214 76.62 188.091 76.076 187.846 75.596C187.6 75.116 187.248 74.7373 186.79 74.46C186.342 74.1827 185.803 74.044 185.174 74.044C184.555 74.044 184.016 74.1827 183.558 74.46C183.099 74.7373 182.747 75.116 182.502 75.596C182.256 76.076 182.134 76.62 182.134 77.228C182.134 77.8253 182.251 78.364 182.486 78.844C182.731 79.324 183.078 79.708 183.526 79.996C183.984 80.2733 184.534 80.412 185.174 80.412ZM192.05 81.5V72.956H193.266V76.62H193.074C193.074 75.7773 193.186 75.068 193.41 74.492C193.645 73.9053 193.997 73.4627 194.466 73.164C194.935 72.8547 195.527 72.7 196.242 72.7H196.306C197.383 72.7 198.178 73.036 198.69 73.708C199.213 74.38 199.474 75.3507 199.474 76.62V81.5H197.938V76.3C197.938 75.6387 197.751 75.1107 197.378 74.716C197.005 74.3107 196.493 74.108 195.842 74.108C195.17 74.108 194.626 74.316 194.21 74.732C193.794 75.148 193.586 75.7027 193.586 76.396V81.5H192.05Z" fill="black"/>
</svg>
