<svg width="201" height="66" viewBox="0 0 201 66" fill="none" xmlns="http://www.w3.org/2000/svg">
<path d="M9.65619 0.675537C-3.09297 0.675457 -3.34387 17.6755 9.65618 17.6755H24.6562V55.4999C24.6562 68.4999 43.6562 68.4999 43.6562 55.4999L43.6562 17.6755H60.1562C72.1562 17.6755 71.6562 0.675537 60.1562 0.675537H9.65619Z" fill="#A651B0"/>
<path d="M144.342 65C137.842 61.5 138.842 52 142.842 47.6757L119.608 47.6757L119.608 9.5C119.608 -2.06777 102.002 -2.06777 102.002 9.5L102.002 47.6757C102.002 55.7228 101.469 64.9999 118.342 65L144.342 65Z" fill="#FFA000"/>
<path d="M152.249 18.4907C136.988 18.4907 137.515 1 152.249 1.00001L190.663 1.00005C201.714 1.00015 201.714 12.1486 196.452 18.4907C186.648 30.3062 171.193 48.616 171.193 48.616H192.768C203.819 48.616 204.345 65 190.663 65H152.249C140.672 65 138.896 54.0003 147.316 45.544C157.369 35.4468 171.193 18.4907 171.193 18.4907H152.249Z" fill="#06BB9C"/>
<path d="M65.5 18.4999C63.5 20.9999 51 19.9999 47 19.9999C47 32.9999 47.0002 28.9999 47 41.4999C46.9998 53.9999 55 64.9999 74 64.9999C93 64.9999 99.3134 53.9999 99.3134 41.4999V9.49989C99.3134 -2.49993 82.4385 -2.5 82.4385 9.4999V30.6028C82.4385 39.6622 81.1562 47.9999 74 47.9999C66.8438 47.9999 65.5 39.9999 65.5 30.6028V18.4999Z" fill="#0064B4"/>
</svg>
